/* XPM */
static char * tiled_xpm[] = {
"20 20 2 1",
" 	c #292552",
".	c #ABB2BF",
"                    ",
"                    ",
"                    ",
"                    ",
"   ......  ......   ",
"   ......  ......   ",
"   ......  ......   ",
"   ......  ......   ",
"   ......  ......   ",
"   ......           ",
"   ......           ",
"   ......  ......   ",
"   ......  ......   ",
"   ......  ......   ",
"   ......  ......   ",
"   ......  ......   ",
"                    ",
"                    ",
"                    ",
"                    "};
