/* XPM */
static char * floating_xpm[] = {
"20 20 3 1",
" 	c #292552",
".	c #B6BDCA",
"+	c #ABB2BF",
"                    ",
"                    ",
"  .............     ",
"  .............     ",
"  .............     ",
"  .............     ",
"  .............     ",
"  .............     ",
"  .............+++  ",
"  .............+++  ",
"  .............+++  ",
"     +++++++++++++  ",
"     +++++++++++++  ",
"     +++++++++++++  ",
"     +++++++++++++  ",
"     +++++++++++++  ",
"     +++++++++++++  ",
"                    ",
"                    ",
"                    "};
