/* XPM */
static char * full_xpm[] = {
"20 20 2 1",
" 	c #292552",
".	c #ABB2BF",
"                    ",
"                    ",
"                    ",
"                    ",
"   ......  ......   ",
"   ......  ......   ",
"   ..          ..   ",
"   ..          ..   ",
"   ..          ..   ",
"                    ",
"                    ",
"   ..          ..   ",
"   ..          ..   ",
"   ..          ..   ",
"   ......  ......   ",
"   ......  ......   ",
"                    ",
"                    ",
"                    ",
"                    "};
