/* XPM */
static char * mirrortiled_xpm[] = {
"20 20 2 1",
" 	c #113844",
".	c #ABB2BF",
"                    ",
"                    ",
"                    ",
"                    ",
"   ..............   ",
"   ..............   ",
"   ..............   ",
"   ..............   ",
"   ..............   ",
"                    ",
"                    ",
"   ......  ......   ",
"   ......  ......   ",
"   ......  ......   ",
"   ......  ......   ",
"   ......  ......   ",
"                    ",
"                    ",
"                    ",
"                    "};
